<?xml version="1.0" encoding="UTF-8"?>
<svg width="338px" height="162px" viewBox="0 0 338 162" version="1.1" xmlns="http://www.w3.org/2000/svg">
    <title>Untitled 2</title>
    <g id="Page-1" stroke="none" stroke-width="1" fill="none" fill-rule="evenodd">
        <path d="M41.2092283,83 C44.3648899,83 47.2235481,83.252845 49.7852029,83.7585349 C52.3468576,84.2642248 54.5558207,84.8261024 56.4120923,85.4441679 C58.2683638,86.0622333 59.7348184,86.6428402 60.8114558,87.1859886 C61.8880933,87.729137 62.4821002,88.056899 62.5934765,88.1692745 C63.0389817,88.5064011 63.2617343,88.8997155 63.2617343,89.3492176 L63.2617343,101.148649 C63.2617343,101.410858 63.1874834,101.61688 63.0389817,101.766714 C62.89048,101.916548 62.7234155,102.010194 62.5377884,102.047653 C62.3521612,102.085111 62.1665341,102.047653 61.9809069,101.935277 C61.7952798,101.822902 61.646778,101.654339 61.5354018,101.429587 C60.8300186,99.7439545 59.9575709,98.0021337 58.9180589,96.2041252 C57.8785468,94.4061166 56.560594,92.7766714 54.9642005,91.3157895 C53.3678069,89.8549075 51.47441,88.6562352 49.2840095,87.7197724 C47.0936091,86.7833096 44.5133917,86.3150782 41.5433572,86.3150782 C37.9421904,86.3150782 34.870061,87.2609056 32.326969,89.1525605 C29.783877,91.0442153 27.7048528,93.6288525 26.0898966,96.9064723 C24.4749403,100.184092 23.2962079,104.023589 22.5536993,108.424964 C21.8111907,112.826339 21.4399364,117.518018 21.4399364,122.5 C21.4399364,127.51944 21.8111907,132.220484 22.5536993,136.603129 C23.2962079,140.985775 24.4192522,144.815908 25.9228321,148.093528 C27.4264121,151.371147 29.3105277,153.955785 31.575179,155.84744 C33.8398303,157.739094 36.4942986,158.684922 39.5385839,158.684922 C42.3972421,158.684922 44.6340493,158.066856 46.2490056,156.830725 C47.8639618,155.594595 49.0705383,153.993243 49.8687351,152.026671 C50.6669318,150.0601 51.1588438,147.878141 51.344471,145.480797 C51.5300981,143.083452 51.6229117,140.723566 51.6229117,138.401138 L51.6229117,133.962304 C51.6229117,132.276671 51.2516574,130.890706 50.5091488,129.80441 C49.7666401,128.718113 48.9034739,127.847202 47.91965,127.191679 C46.935826,126.536155 45.9612835,126.077288 44.9960223,125.815078 C44.0307611,125.552869 43.3253779,125.384305 42.8798727,125.309388 C42.5457438,125.27193 42.2951472,125.15019 42.1280827,124.944168 C41.9610183,124.738146 41.8867674,124.532124 41.9053302,124.326102 C41.9238929,124.120081 42.0259878,123.932788 42.211615,123.764225 C42.3972421,123.595661 42.6756828,123.51138 43.0469372,123.51138 L68.2179793,123.51138 C68.7748608,123.51138 69.2110846,123.670578 69.5266508,123.988976 C69.8422169,124.307373 70,124.728781 70,125.253201 L70,153.852774 C70,154.45211 69.8886237,154.882883 69.6658711,155.145092 C69.4431185,155.407302 69.1275524,155.613324 68.7191726,155.763158 C65.8605145,156.624704 63.2524529,157.430062 60.8949881,158.179232 C58.5375232,158.928402 56.2171838,159.583926 53.9339698,160.145804 C51.6507558,160.707681 49.2932909,161.157183 46.8615752,161.49431 C44.4298595,161.831437 41.7104216,162 38.7032617,162 C33.0230708,162 27.8162291,160.98862 23.0827367,158.965861 C18.3492442,156.943101 14.2747282,154.171171 10.8591885,150.650071 C7.4436489,147.128971 4.77989923,142.99917 2.86793954,138.260669 C0.955979846,133.522167 0,128.418445 0,122.949502 C0,119.316027 0.482630602,115.804291 1.44789181,112.414296 C2.41315301,109.024301 3.78679395,105.849692 5.56881464,102.890469 C7.35083532,99.931247 9.49482896,97.2248696 12.0007955,94.7713371 C14.5067621,92.3178046 17.2818881,90.220128 20.3261734,88.4783073 C23.3704588,86.7364865 26.6560594,85.3879801 30.1829753,84.4327881 C33.7098913,83.477596 37.3853089,83 41.2092283,83 Z M93.3749756,110 C94.2744486,110 94.724185,110.487207 94.724185,111.461622 L94.724185,144.348108 C94.7616631,145.847207 94.9022057,147.346306 95.145813,148.845405 C95.3894203,150.344505 95.8391567,151.703063 96.4950224,152.921081 C97.1508882,154.139099 98.0691001,155.122883 99.2496584,155.872432 C100.430217,156.621982 102.013664,156.996757 104,156.996757 C106.09877,156.996757 107.757174,156.556396 108.97521,155.675676 C110.193246,154.794955 111.120828,153.68 111.757954,152.330811 C112.395081,150.981622 112.807339,149.491892 112.99473,147.861622 C113.18212,146.231351 113.275815,144.666667 113.275815,143.167568 L113.275815,118.825946 C113.275815,117.326847 112.975991,116.118198 112.376342,115.2 C111.776693,114.281802 111.092719,113.56973 110.324419,113.063784 C109.556119,112.557838 108.806559,112.211171 108.075737,112.023784 C107.588522,111.898859 107.197085,111.798919 106.901425,111.723964 L106.529768,111.63027 C106.229943,111.592793 106.014445,111.48036 105.883272,111.292973 C105.752098,111.105586 105.705251,110.918198 105.742729,110.730811 C105.780207,110.543423 105.883272,110.374775 106.051923,110.224865 C106.220574,110.074955 106.454812,110 106.754636,110 L127.105212,110 C128.004685,110 128.454421,110.487207 128.454421,111.461622 L128.454421,151.768649 C128.454421,153.267748 128.754246,154.476396 129.353894,155.394595 C129.953543,156.312793 130.637517,157.024865 131.405817,157.530811 C132.174117,158.036757 132.923678,158.392793 133.654499,158.598919 C134.385321,158.805045 134.900644,158.926847 135.200468,158.964324 C135.500293,159.039279 135.715792,159.161081 135.846965,159.32973 C135.978138,159.498378 136.024985,159.676396 135.987507,159.863784 C135.950029,160.051171 135.846965,160.21982 135.678313,160.36973 C135.509662,160.51964 135.275425,160.594595 134.9756,160.594595 L114.625024,160.594595 C114.212766,160.594595 113.884833,160.500901 113.641226,160.313514 C113.397619,160.126126 113.275815,159.826306 113.275815,159.414054 L113.275815,156.097297 C111.701737,157.671351 109.659184,159.048649 107.148155,160.229189 C104.637127,161.40973 101.526449,162 97.8161234,162 C94.7429241,162 92.1663088,161.662703 90.0862776,160.988108 C88.0062463,160.313514 86.2822565,159.414054 84.914308,158.28973 C83.5463596,157.165405 82.4969744,155.872432 81.7661526,154.410811 C81.0353309,152.949189 80.5106383,151.431351 80.192075,149.857297 C79.8735116,148.283243 79.6861214,146.718559 79.6299044,145.163243 C79.5736873,143.607928 79.5455788,142.155676 79.5455788,140.806486 L79.5455788,118.825946 C79.5455788,117.326847 79.2457544,116.118198 78.6461058,115.2 C78.0464572,114.281802 77.3624829,113.56973 76.5941831,113.063784 C75.8258833,112.557838 75.0763225,112.211171 74.3455007,112.023784 C73.8582862,111.898859 73.4668489,111.798919 73.1711888,111.723964 L72.7995315,111.63027 C72.4997072,111.592793 72.2842085,111.48036 72.1530353,111.292973 C72.0218622,111.105586 71.9750146,110.918198 72.0124927,110.730811 C72.0499707,110.543423 72.1530353,110.374775 72.3216865,110.224865 C72.4903377,110.074955 72.7245754,110 73.0243998,110 L93.3749756,110 Z M159.511472,109 C163.634861,109 167.1546,109.418421 170.07069,110.255263 C172.98678,111.092105 175.364229,112.310175 177.203037,113.909474 C179.041846,115.508772 180.379161,117.489298 181.214983,119.851053 C182.050805,122.212807 182.468716,124.9 182.468716,127.912632 C182.468716,131.520351 182.357273,134.904912 182.134387,138.066316 C181.911501,141.227719 181.753624,144.026491 181.660755,146.462632 C181.567885,148.898772 181.61432,150.907193 181.800058,152.487895 C181.985796,154.068596 182.505864,155.044912 183.360259,155.416842 C183.731736,155.602807 184.196081,155.686491 184.753296,155.667895 C185.310511,155.649298 185.904873,155.584211 186.536383,155.472632 C187.05645,155.361053 187.465074,155.463333 187.762255,155.779474 C188.059436,156.095614 188.07801,156.514035 187.817977,157.034737 C187.595091,157.44386 187.232901,157.927368 186.731408,158.485263 C186.229915,159.043158 185.561257,159.56386 184.725435,160.047368 C183.889613,160.530877 182.868053,160.94 181.660755,161.274737 C180.453456,161.609474 179.032559,161.776842 177.398062,161.776842 C175.132056,161.776842 173.228239,161.321228 171.686612,160.41 C170.144985,159.498772 169.07699,158.44807 168.482628,157.257895 C168.334037,156.960351 168.120438,156.830175 167.841831,156.867368 C167.563224,156.904561 167.331051,157.01614 167.145313,157.202105 C167.03387,157.313684 166.690254,157.620526 166.114466,158.122632 C165.538677,158.624737 164.721429,159.164035 163.662721,159.740526 C162.604013,160.317018 161.331707,160.837719 159.845801,161.302632 C158.359895,161.767544 156.651104,162 154.719426,162 C151.413286,162 148.636499,161.535088 146.389067,160.605263 C144.141634,159.675439 142.3214,158.475965 140.928363,157.006842 C139.535327,155.537719 138.53234,153.882632 137.919404,152.041579 C137.306468,150.200526 137,148.368772 137,146.546316 C137,143.60807 137.826535,141.041754 139.479605,138.847368 C141.132675,136.652982 143.277952,135.016491 145.915434,133.937895 C147.327045,133.38 148.803664,132.980175 150.345291,132.738421 C151.886918,132.496667 153.419259,132.245614 154.942312,131.985263 C156.465365,131.724912 157.960558,131.399474 159.42789,131.008947 C160.895222,130.618421 162.278972,129.976842 163.579139,129.084211 C164.953602,128.154386 165.910154,126.964211 166.448795,125.513684 C166.987435,124.063158 167.256756,122.519649 167.256756,120.883158 C167.256756,119.692982 167.098878,118.549298 166.783123,117.452105 C166.467368,116.354912 166.021597,115.397193 165.445808,114.578947 C164.87002,113.760702 164.201362,113.109825 163.439835,112.626316 C162.678309,112.142807 161.851774,111.901053 160.96023,111.901053 C159.362881,111.901053 158.192731,112.310175 157.449778,113.128421 C156.706825,113.946667 156.12175,114.932281 155.694552,116.085263 C155.267354,117.238246 154.868017,118.437719 154.49654,119.683684 C154.125064,120.929649 153.530701,121.998947 152.713453,122.891579 C152.044796,123.598246 151.181113,124.128246 150.122405,124.481579 C149.063697,124.834912 148.051424,125.011579 147.085585,125.011579 C146.082599,125.011579 145.191055,124.844211 144.410955,124.509474 C143.630854,124.174737 142.962197,123.719123 142.404982,123.142632 C141.847767,122.56614 141.429857,121.896667 141.151249,121.134211 C140.872642,120.371754 140.733338,119.562807 140.733338,118.707368 C140.733338,117.554386 141.011946,116.401404 141.56916,115.248421 C142.126375,114.095439 143.120074,113.054035 144.550259,112.124211 C145.980443,111.194386 147.902833,110.441228 150.31743,109.864737 C152.732027,109.288246 155.796708,109 159.511472,109 Z M286.981102,76.0080555 C287.334467,76.0456476 287.511149,76.3275884 287.511149,76.8538779 L287.511149,151.737355 C287.511149,153.241039 287.808719,154.453385 288.40386,155.374391 C288.999,156.295398 289.677832,157.009648 290.440356,157.517141 C291.20288,158.024635 291.946805,158.38176 292.672133,158.588516 C293.39746,158.795273 293.908909,158.917447 294.206479,158.955039 C294.50405,159.030224 294.717928,159.152398 294.848115,159.321562 C294.978302,159.490727 295.024798,159.669289 294.987601,159.85725 C294.950405,160.04521 294.848115,160.214375 294.680732,160.364743 C294.513349,160.515112 294.280872,160.590296 293.983302,160.590296 L273.785721,160.590296 C273.376562,160.590296 273.051095,160.496316 272.809319,160.308355 C272.567543,160.120395 272.446655,159.819658 272.446655,159.406145 L272.446655,154.443987 C272.446655,154.180842 272.353665,154.011677 272.167683,153.936493 C271.981702,153.861309 271.814319,153.917697 271.665533,154.105658 C271.330767,154.519171 270.772823,155.167635 269.991701,156.051049 C269.210579,156.934464 268.141186,157.817878 266.783522,158.701293 C265.425857,159.584707 263.752025,160.355345 261.762024,161.013207 C259.772023,161.671069 257.437956,162 254.759824,162 C251.784122,162 249.180382,161.605283 246.948605,160.815849 C244.716828,160.026414 242.791921,158.955039 241.173883,157.601723 C239.555844,156.248408 238.216778,154.707131 237.156684,152.977894 C236.09659,151.248657 235.259674,149.42544 234.645935,147.508243 C234.032197,145.591045 233.60444,143.673848 233.362664,141.75665 C233.120888,139.839453 233,138.035032 233,136.343387 C233,132.133071 233.511449,128.308074 234.534347,124.868396 C235.557244,121.428719 237.10089,118.487136 239.165283,116.043649 C241.229677,113.600162 243.814819,111.720557 246.920708,110.404833 C250.026597,109.08911 253.681132,108.431248 257.884312,108.431248 C260.227677,108.431248 262.254875,108.572218 263.965903,108.854159 C265.676932,109.1361 267.090391,109.455633 268.206279,109.812758 C269.322168,110.169883 270.159084,110.508212 270.717028,110.827744 C271.274973,111.147277 271.591141,111.32584 271.665533,111.363432 C271.851515,111.5138 272.028197,111.551393 272.19558,111.476208 C272.362964,111.401024 272.446655,111.269452 272.446655,111.081491 L272.446655,88.2442862 C272.446655,87.7555889 272.223478,87.454852 271.777122,87.3420757 C271.70273,87.3420757 271.433057,87.2856875 270.968103,87.1729112 C270.50315,87.0601349 269.973103,86.9285625 269.377962,86.7781941 C268.782822,86.6278257 268.234177,86.4962533 267.732027,86.383477 C267.229877,86.2707006 266.923008,86.1955164 266.811419,86.1579243 C266.327867,86.045148 266.076792,85.7914013 266.058194,85.3966842 C266.039596,85.001967 266.309269,84.7294243 266.867213,84.5790558 C268.317868,84.2407269 269.889411,83.7802236 271.581842,83.1975459 C273.274273,82.6148682 274.976002,81.9570064 276.687031,81.2239603 C278.39806,80.4909142 280.053295,79.70148 281.652735,78.8556575 C283.252175,78.0098351 284.684232,77.1546147 285.948905,76.2899963 C286.283672,76.0644436 286.627737,75.9704633 286.981102,76.0080555 Z M316.504312,109 C318.812074,109 320.952338,109.185965 322.925102,109.557895 C324.897867,109.929825 326.619383,110.348246 328.08965,110.813158 C329.559918,111.27807 330.73241,111.715088 331.607127,112.124211 C332.481843,112.533333 332.975034,112.756491 333.0867,112.793684 C333.310032,112.905263 333.440309,112.998246 333.477531,113.072632 C333.514753,113.147018 333.551975,113.277193 333.589197,113.463158 C333.589197,113.537544 333.682251,114.048947 333.868361,114.997368 C334.054471,115.945789 334.240581,116.977895 334.426691,118.093684 C334.612801,119.209474 334.798911,120.232281 334.98502,121.162105 C335.17113,122.09193 335.264185,122.612632 335.264185,122.724211 C335.338629,123.09614 335.208352,123.365789 334.873355,123.533158 C334.538357,123.700526 334.240581,123.598246 333.980027,123.226316 C333.45892,122.482456 332.640036,121.478246 331.523377,120.213684 C330.406718,118.949123 329.048116,117.703158 327.447571,116.475789 C325.847027,115.248421 324.069678,114.179123 322.115524,113.267895 C320.161371,112.356667 318.086246,111.901053 315.89015,111.901053 C313.582388,111.901053 311.888788,112.514737 310.809351,113.742105 C309.729914,114.969474 309.190195,116.457193 309.190195,118.205263 C309.190195,119.097895 309.320472,119.962632 309.581026,120.799474 C309.84158,121.636316 310.399909,122.445263 311.256015,123.226316 C312.11212,124.007368 313.34975,124.797719 314.968906,125.597368 C316.588062,126.397018 318.756241,127.205965 321.473445,128.024211 C326.907853,129.697895 331.020881,131.966667 333.812528,134.830526 C336.604176,137.694386 338,141.395088 338,145.932632 C338,148.238596 337.609169,150.367895 336.827508,152.320526 C336.045847,154.273158 334.836133,155.965439 333.198366,157.397368 C331.560599,158.829298 329.476169,159.954386 326.945075,160.772632 C324.413981,161.590877 321.399001,162 317.900136,162 C314.959601,162 312.344757,161.78614 310.055606,161.358421 C307.766455,160.930702 305.830912,160.456491 304.248979,159.935789 C302.667045,159.415088 301.429414,158.922281 300.536087,158.457368 C299.64276,157.992456 299.121652,157.704211 298.972764,157.592632 C298.89832,157.518246 298.833182,157.406667 298.777349,157.257895 C298.721516,157.109123 298.674989,156.941754 298.637767,156.755789 C298.637767,156.681404 298.554017,156.151404 298.386518,155.165789 C298.21902,154.180175 298.042215,153.092281 297.856105,151.902105 C297.669995,150.71193 297.493191,149.586842 297.325692,148.526842 C297.158193,147.466842 297.055833,146.806667 297.018611,146.546316 C296.944167,146.025614 297.093055,145.718772 297.465275,145.625789 C297.837494,145.532807 298.116659,145.635088 298.302769,145.932632 C298.339991,146.044211 298.581934,146.434737 299.028597,147.104211 C299.475261,147.773684 300.089424,148.59193 300.871085,149.558947 C301.652746,150.525965 302.592601,151.567368 303.690649,152.683158 C304.788697,153.798947 306.017022,154.831053 307.375624,155.779474 C308.734226,156.727895 310.213799,157.508947 311.814344,158.122632 C313.414889,158.736316 315.127099,159.043158 316.950976,159.043158 C319.072628,159.043158 320.738311,158.466667 321.948025,157.313684 C323.157739,156.160702 323.762596,154.635789 323.762596,152.738947 C323.762596,151.734737 323.63232,150.749123 323.371766,149.782105 C323.111212,148.815088 322.552882,147.84807 321.696777,146.881053 C320.840672,145.914035 319.612347,144.956316 318.011802,144.007895 C316.411257,143.059474 314.270994,142.101754 311.591012,141.134737 C309.134362,140.279298 307.068543,139.256491 305.393554,138.066316 C303.718566,136.87614 302.359964,135.546491 301.317749,134.077368 C300.275533,132.608246 299.521788,131.027544 299.056514,129.335263 C298.591239,127.642982 298.358602,125.848421 298.358602,123.951579 C298.358602,122.501053 298.619156,120.911053 299.140263,119.181579 C299.661371,117.452105 300.601226,115.834211 301.959828,114.327895 C303.318429,112.821579 305.170222,111.557018 307.515207,110.534211 C309.860191,109.511404 312.856559,109 316.504312,109 Z M212.143321,109.007986 C212.496898,109.045257 212.673687,109.324784 212.673687,109.846567 L212.673687,117.841038 C213.976342,114.971228 215.74423,112.828188 217.977351,111.411918 C220.210473,109.995648 222.722735,109.287513 225.514137,109.287513 C227.077323,109.287513 228.398586,109.483182 229.477928,109.87452 C230.557271,110.265858 231.43191,110.787641 232.101847,111.439871 C232.771783,112.092101 233.255626,112.856141 233.553376,113.731992 C233.851125,114.607843 234,115.530282 234,116.499309 C234,118.288281 233.432415,119.685916 232.297245,120.692213 C231.162074,121.69851 229.645413,122.201659 227.747259,122.201659 C226.29573,122.201659 225.16056,121.940767 224.341748,121.418983 C223.522937,120.8972 222.825087,120.328828 222.248197,119.713869 C221.671307,119.09891 221.140941,118.530538 220.657098,118.008754 C220.173254,117.486971 219.577755,117.226079 218.8706,117.226079 C218.237882,117.226079 217.558641,117.440383 216.832877,117.868991 C216.107112,118.297599 215.437175,119.108227 214.823067,120.300875 C214.208958,121.493524 213.697201,123.133415 213.287796,125.22055 C212.87839,127.307684 212.673687,130.009778 212.673687,133.326832 L212.673687,152.670097 C212.673687,154.160907 212.924913,155.33492 213.427366,156.192136 C213.929818,157.049352 214.506708,157.701582 215.158035,158.148825 C215.809362,158.596068 216.451385,158.903548 217.084103,159.071264 C217.716821,159.23898 218.182054,159.341473 218.479804,159.378744 C218.777553,159.453284 218.991561,159.574413 219.121826,159.742129 C219.252092,159.909845 219.298615,160.086879 219.261396,160.27323 C219.224178,160.459581 219.121826,160.627297 218.954342,160.776378 C218.786858,160.925459 218.554241,161 218.256492,161 L192.017311,161 C191.719561,161 191.486945,160.925459 191.31946,160.776378 C191.151976,160.627297 191.049625,160.459581 191.012406,160.27323 C190.975188,160.086879 191.021711,159.909845 191.151976,159.742129 C191.282242,159.574413 191.496249,159.453284 191.793999,159.378744 C192.091748,159.341473 192.556982,159.23898 193.1897,159.071264 C193.822418,158.903548 194.46444,158.596068 195.115767,158.148825 C195.767095,157.701582 196.343984,157.049352 196.846437,156.192136 C197.348889,155.33492 197.600115,154.160907 197.600115,152.670097 L197.600115,121.139456 C197.600115,120.654943 197.376803,120.356781 196.930179,120.24497 C196.905366,120.24497 196.858843,120.238758 196.790609,120.226335 L196.625192,120.193206 C196.495616,120.165598 196.327443,120.126948 196.120672,120.077254 C195.655439,119.965443 195.125072,119.834997 194.529573,119.685916 C193.934074,119.536835 193.385098,119.406389 192.882646,119.294578 C192.380193,119.182768 192.073139,119.108227 191.961483,119.070957 C191.47764,118.959146 191.226414,118.707572 191.207804,118.316234 C191.189195,117.924896 191.459031,117.654687 192.017311,117.505606 C193.46884,117.170174 195.04133,116.713613 196.734781,116.135924 C198.428231,115.558235 200.130987,114.906005 201.843047,114.179235 C203.555107,113.452465 205.211339,112.66979 206.811743,111.831209 C208.412147,110.992628 209.845066,110.144729 211.110502,109.287513 C211.44547,109.063892 211.789743,108.970716 212.143321,109.007986 Z M166.420934,130.255789 C166.123753,130.590526 165.854432,130.906667 165.612973,131.204211 C165.371513,131.501754 165.046471,131.855088 164.637847,132.264211 C163.932042,133.00807 163.207663,133.705439 162.46471,134.356316 C161.721757,135.007193 160.978804,135.667368 160.235851,136.336842 C159.492898,136.93193 158.759232,137.527018 158.034853,138.122105 C157.310474,138.717193 156.63253,139.36807 156.00102,140.074737 C155.035181,141.190526 154.320089,142.408596 153.855743,143.728947 C153.391398,145.049298 153.159225,146.453333 153.159225,147.941053 C153.159225,148.945263 153.307816,149.958772 153.604997,150.981579 C153.902178,152.004386 154.357237,152.915614 154.970173,153.715263 C155.583109,154.514912 156.363209,155.165789 157.310474,155.667895 C158.257739,156.17 159.400029,156.421053 160.737344,156.421053 C162.074659,156.421053 163.161228,156.142105 163.99705,155.584211 C164.832872,155.026316 165.482956,154.356842 165.947301,153.575789 C166.411647,152.794737 166.736689,152.004386 166.922427,151.204737 C167.108165,150.405088 167.201034,149.782105 167.201034,149.335789 L167.201034,130.534737 C167.201034,130.311579 167.108165,130.162807 166.922427,130.088421 C166.736689,130.014035 166.569524,130.069825 166.420934,130.255789 Z M261.455154,111.645373 C259.260574,111.645373 257.382162,112.209254 255.819918,113.337018 C254.257674,114.464781 252.993001,116.015455 252.025897,117.989041 C251.058794,119.962626 250.352065,122.293337 249.905709,124.981173 C249.459354,127.669008 249.236176,130.572999 249.236176,133.693143 C249.236176,134.52017 249.245475,135.638535 249.264074,137.048239 C249.282672,138.457943 249.394261,139.971025 249.59884,141.587486 C249.80342,143.203947 250.128887,144.839203 250.575242,146.493256 C251.021598,148.147309 251.672533,149.632197 252.528047,150.947921 C253.383562,152.263644 254.480852,153.344417 255.819918,154.19024 C257.158984,155.036062 258.814219,155.458973 260.785621,155.458973 C263.314969,155.458973 265.342166,154.989072 266.867213,154.049269 C268.392261,153.109467 269.563944,151.962907 270.382262,150.609592 C271.20058,149.256276 271.739926,147.818378 272.0003,146.295897 C272.260674,144.773417 272.390861,143.429499 272.390861,142.264144 L272.390861,127.039341 C272.390861,126.099538 272.325767,125.065755 272.19558,123.937992 C272.065393,122.810229 271.842216,121.673067 271.526047,120.526508 C271.209879,119.379949 270.782122,118.28038 270.242776,117.227801 C269.70343,116.175222 269.024598,115.235419 268.206279,114.408393 C267.387961,113.581366 266.420858,112.914106 265.30497,112.406613 C264.189081,111.89912 262.905809,111.645373 261.455154,111.645373 Z M154.851765,19.0080555 C155.210829,19.0456476 155.390361,19.3275884 155.390361,19.8538779 L155.390361,94.7373548 C155.390361,96.2410391 155.692731,97.4533845 156.29747,98.3743912 C156.90221,99.2953978 157.591991,100.009648 158.366813,100.517141 C159.141636,101.024635 159.89756,101.38176 160.634587,101.588516 C161.371613,101.795273 161.891311,101.917447 162.193681,101.955039 C162.49605,102.030224 162.713379,102.152398 162.845665,102.321562 C162.977952,102.490727 163.025197,102.669289 162.987401,102.85725 C162.949605,103.04521 162.845665,103.214375 162.675582,103.364743 C162.505499,103.515112 162.269273,103.590296 161.966903,103.590296 L141.443556,103.590296 C141.027797,103.590296 140.69708,103.496316 140.451405,103.308355 C140.205729,103.120395 140.082892,102.819658 140.082892,102.406145 L140.082892,97.4439865 C140.082892,97.1808418 139.988401,97.0116773 139.79942,96.9364931 C139.610439,96.8613089 139.440356,96.917697 139.289171,97.1056575 C138.949005,97.5191707 138.382062,98.1676346 137.588341,99.0510491 C136.794621,99.9344636 135.707979,100.817878 134.328417,101.701293 C132.948855,102.584707 131.248025,103.355345 129.225927,104.013207 C127.20383,104.671069 124.832117,105 122.110789,105 C119.087091,105 116.441356,104.605283 114.173583,103.815849 C111.905809,103.026414 109.949855,101.955039 108.305719,100.601723 C106.661584,99.2484076 105.30092,97.7071313 104.223728,95.9778943 C103.146535,94.2486574 102.29612,92.4254402 101.672483,90.5082428 C101.048845,88.5910453 100.614189,86.6738479 100.368513,84.7566504 C100.122838,82.839453 100,81.0350318 100,79.343387 C100,75.1330711 100.519698,71.3080742 101.559094,67.8683964 C102.59849,64.4287186 104.167033,61.4871363 106.264724,59.0436493 C108.362414,56.6001624 110.989251,54.720557 114.145235,53.4048333 C117.30122,52.0891095 121.014699,51.4312477 125.285671,51.4312477 C127.666833,51.4312477 129.726727,51.5722181 131.465353,51.8541589 C133.20398,52.1360997 134.640236,52.4556326 135.774123,52.8127576 C136.908009,53.1698826 137.758424,53.5082116 138.325367,53.8277445 C138.722228,54.0514175 138.998707,54.206015 139.154806,54.2915371 L139.289171,54.363432 C139.478152,54.5138004 139.657684,54.5513925 139.827767,54.4762083 C139.99785,54.4010241 140.082892,54.2694517 140.082892,54.0814912 L140.082892,31.2442862 C140.082892,30.7555889 139.856114,30.454852 139.40256,30.3420757 C139.326967,30.3420757 139.052945,30.2856875 138.580492,30.1729112 C138.108039,30.0601349 137.569443,29.9285625 136.964704,29.7781941 C136.359964,29.6278257 135.80247,29.4962533 135.292221,29.383477 C134.781972,29.2707006 134.470153,29.1955164 134.356764,29.1579243 C133.865413,29.045148 133.610289,28.7914013 133.591391,28.3966842 C133.572493,28.001967 133.846515,27.7294243 134.413459,27.5790558 C135.887511,27.2407269 137.484402,26.7802236 139.20413,26.1975459 C140.923858,25.6148682 142.653035,24.9570064 144.391661,24.2239603 C146.130287,23.4909142 147.812219,22.70148 149.437456,21.8556575 C151.062694,21.0098351 152.517848,20.1546147 153.80292,19.2899963 C154.143086,19.0644436 154.492701,18.9704633 154.851765,19.0080555 Z M232.511472,52 C236.634861,52 240.1546,52.4184211 243.07069,53.2552632 C245.98678,54.0921053 248.364229,55.3101754 250.203037,56.9094737 C252.041846,58.5087719 253.379161,60.4892982 254.214983,62.8510526 C255.050805,65.212807 255.468716,67.9 255.468716,70.9126316 C255.468716,74.5203509 255.357273,77.9049123 255.134387,81.0663158 C254.911501,84.2277193 254.753624,87.0264912 254.660755,89.4626316 C254.567885,91.8987719 254.61432,93.907193 254.800058,95.4878947 C254.985796,97.0685965 255.505864,98.0449123 256.360259,98.4168421 C256.731736,98.602807 257.196081,98.6864912 257.753296,98.6678947 C258.310511,98.6492982 258.904873,98.5842105 259.536383,98.4726316 C260.05645,98.3610526 260.465074,98.4633333 260.762255,98.7794737 C261.059436,99.095614 261.07801,99.5140351 260.817977,100.034737 C260.595091,100.44386 260.232901,100.927368 259.731408,101.485263 C259.229915,102.043158 258.561257,102.56386 257.725435,103.047368 C256.889613,103.530877 255.868053,103.94 254.660755,104.274737 C253.453456,104.609474 252.032559,104.776842 250.398062,104.776842 C248.132056,104.776842 246.228239,104.321228 244.686612,103.41 C243.144985,102.498772 242.07699,101.44807 241.482628,100.257895 C241.334037,99.9603509 241.120438,99.8301754 240.841831,99.8673684 C240.563224,99.9045614 240.331051,100.01614 240.145313,100.202105 C240.03387,100.313684 239.690254,100.620526 239.114466,101.122632 C238.538677,101.624737 237.721429,102.164035 236.662721,102.740526 C235.604013,103.317018 234.331707,103.837719 232.845801,104.302632 C231.359895,104.767544 229.651104,105 227.719426,105 C224.413286,105 221.636499,104.535088 219.389067,103.605263 C217.141634,102.675439 215.3214,101.475965 213.928363,100.006842 C212.535327,98.5377193 211.53234,96.8826316 210.919404,95.0415789 C210.306468,93.2005263 210,91.3687719 210,89.5463158 C210,86.6080702 210.826535,84.0417544 212.479605,81.8473684 C214.132675,79.6529825 216.277952,78.0164912 218.915434,76.9378947 C220.327045,76.38 221.803664,75.9801754 223.345291,75.7384211 C224.886918,75.4966667 226.419259,75.245614 227.942312,74.9852632 C229.465365,74.7249123 230.960558,74.3994737 232.42789,74.0089474 C233.895222,73.6184211 235.278972,72.9768421 236.579139,72.0842105 C237.953602,71.154386 238.910154,69.9642105 239.448795,68.5136842 C239.987435,67.0631579 240.256756,65.5196491 240.256756,63.8831579 C240.256756,62.6929825 240.098878,61.5492982 239.783123,60.4521053 C239.467368,59.3549123 239.021597,58.397193 238.445808,57.5789474 C237.87002,56.7607018 237.201362,56.1098246 236.439835,55.6263158 C235.678309,55.142807 234.851774,54.9010526 233.96023,54.9010526 C232.362881,54.9010526 231.192731,55.3101754 230.449778,56.1284211 C229.706825,56.9466667 229.12175,57.9322807 228.694552,59.0852632 C228.267354,60.2382456 227.868017,61.4377193 227.49654,62.6836842 C227.125064,63.9296491 226.530701,64.9989474 225.713453,65.8915789 C225.044796,66.5982456 224.181113,67.1282456 223.122405,67.4815789 C222.063697,67.8349123 221.051424,68.0115789 220.085585,68.0115789 C219.082599,68.0115789 218.191055,67.8442105 217.410955,67.5094737 C216.630854,67.1747368 215.962197,66.7191228 215.404982,66.1426316 C214.847767,65.5661404 214.429857,64.8966667 214.151249,64.1342105 C213.872642,63.3717544 213.733338,62.562807 213.733338,61.7073684 C213.733338,60.554386 214.011946,59.4014035 214.56916,58.2484211 C215.126375,57.0954386 216.120074,56.0540351 217.550259,55.1242105 C218.980443,54.194386 220.902833,53.4412281 223.31743,52.8647368 C225.732027,52.2882456 228.796708,52 232.511472,52 Z M187.100358,52 C190.020311,52 192.593986,52.3998246 194.821386,53.1994737 C197.048785,53.9991228 198.976703,55.0405263 200.605137,56.3236842 C202.233572,57.6068421 203.581243,59.0387719 204.648148,60.6194737 C205.715054,62.2001754 206.576065,63.7715789 207.231183,65.3336842 C207.8863,66.8957895 208.344883,68.3649123 208.60693,69.7410526 C208.868977,71.117193 209,72.214386 209,73.0326316 C209,73.4045614 208.878335,73.6649123 208.635006,73.8136842 C208.391677,73.9624561 208.064118,74.0368421 207.65233,74.0368421 L178.733572,74.0368421 C178.134608,74.0368421 177.835125,74.3529825 177.835125,74.9852632 C177.835125,78.7789474 178.172043,82.0333333 178.845878,84.7484211 C179.519713,87.4635088 180.502389,89.6857895 181.793907,91.4152632 C183.085424,93.1447368 184.695141,94.4185965 186.623059,95.2368421 C188.550976,96.0550877 190.787734,96.4642105 193.333333,96.4642105 C195.279968,96.4642105 197.01135,96.2596491 198.527479,95.8505263 C200.043608,95.4414035 201.363202,94.967193 202.48626,94.4278947 C203.609319,93.8885965 204.526483,93.377193 205.237754,92.8936842 C205.949024,92.4101754 206.473118,92.0940351 206.810036,91.9452632 C207.33413,91.7221053 207.745918,91.7685965 208.0454,92.0847368 C208.344883,92.4008772 208.344883,92.8750877 208.0454,93.5073684 C207.933094,93.7305263 207.680406,94.1675439 207.287336,94.8184211 C206.894265,95.4692982 206.323377,96.2224561 205.574671,97.0778947 C204.825966,97.9333333 203.890084,98.8259649 202.767025,99.7557895 C201.643967,100.685614 200.305655,101.541053 198.752091,102.322105 C197.198526,103.103158 195.42035,103.744737 193.417563,104.246842 C191.414775,104.748947 189.178017,105 186.707288,105 C182.963759,105 179.575866,104.414211 176.543608,103.242632 C173.51135,102.071053 170.918957,100.369474 168.766428,98.1378947 C166.613899,95.9063158 164.948029,93.1912281 163.768817,89.9926316 C162.589606,86.7940351 162,83.1863158 162,79.1694737 C162,74.7807018 162.729988,70.8940351 164.189964,67.5094737 C165.64994,64.1249123 167.55914,61.2889474 169.917563,59.0015789 C172.275986,56.7142105 174.952609,54.9754386 177.947431,53.7852632 C180.942254,52.5950877 183.99323,52 187.100358,52 Z M93.8417041,51.4267081 L93.9923648,51.4347826 C94.3452332,51.4724638 94.5216674,51.7550725 94.5216674,52.2826087 L94.5216674,95.126087 C94.5216674,96.6333333 94.8188196,97.8485507 95.4131242,98.7717391 C96.0074288,99.6949275 96.6853075,100.41087 97.4467602,100.919565 C98.208213,101.428261 98.9510937,101.786232 99.6754024,101.993478 C100.399711,102.200725 100.910442,102.323188 101.207594,102.36087 C101.504746,102.436232 101.718324,102.558696 101.848329,102.728261 C101.978333,102.897826 102.024763,103.076812 101.987619,103.265217 C101.950475,103.453623 101.848329,103.623188 101.68118,103.773913 C101.514032,103.924638 101.281882,104 100.98473,104 L73.0152703,104 C72.718118,104 72.4859678,103.924638 72.3188196,103.773913 C72.1516715,103.623188 72.0495254,103.453623 72.0123813,103.265217 C71.9752373,103.076812 72.0216674,102.897826 72.1516715,102.728261 C72.2816756,102.558696 72.4952538,102.436232 72.7924061,102.36087 C73.0895584,102.323188 73.6002889,102.200725 74.3245976,101.993478 C75.0489063,101.786232 75.791787,101.428261 76.5532398,100.919565 C77.3146925,100.41087 77.9925712,99.6949275 78.5868758,98.7717391 C79.1811804,97.8485507 79.4783326,96.6333333 79.4783326,95.126087 L79.4783326,63.7 C79.4783326,63.2101449 79.2554684,62.9086957 78.80974,62.7956522 C78.7354519,62.7956522 78.4661577,62.7391304 78.0018572,62.626087 C77.5375567,62.5130435 77.0082542,62.3811594 76.4139496,62.2304348 C75.8196451,62.0797101 75.2717705,61.9478261 74.770326,61.8347826 C74.2688816,61.7217391 73.9624433,61.6463768 73.8510111,61.6086957 C73.3681387,61.4956522 73.1174164,61.2413043 73.0988444,60.8456522 C73.0802724,60.45 73.3495667,60.1768116 73.9067272,60.026087 C75.3553446,59.6869565 76.9246801,59.2253623 78.6147338,58.6413043 C80.3047875,58.0572464 82.0041271,57.3978261 83.7127528,56.6630435 C85.4213785,55.9282609 87.0742881,55.1369565 88.6714816,54.2891304 C90.2686752,53.4413043 91.6987206,52.584058 92.9616178,51.7173913 C93.2004009,51.5559006 93.4439218,51.4616977 93.6921804,51.4347826 L93.8417041,51.4267081 Z M239.420934,73.2557895 C239.123753,73.5905263 238.854432,73.9066667 238.612973,74.2042105 C238.371513,74.5017544 238.046471,74.8550877 237.637847,75.2642105 C236.932042,76.0080702 236.207663,76.7054386 235.46471,77.3563158 C234.721757,78.007193 233.978804,78.6673684 233.235851,79.3368421 C232.492898,79.9319298 231.759232,80.5270175 231.034853,81.1221053 C230.310474,81.717193 229.63253,82.3680702 229.00102,83.0747368 C228.035181,84.1905263 227.320089,85.4085965 226.855743,86.7289474 C226.391398,88.0492982 226.159225,89.4533333 226.159225,90.9410526 C226.159225,91.9452632 226.307816,92.9587719 226.604997,93.9815789 C226.902178,95.004386 227.357237,95.915614 227.970173,96.7152632 C228.583109,97.5149123 229.363209,98.1657895 230.310474,98.6678947 C231.257739,99.17 232.400029,99.4210526 233.737344,99.4210526 C235.074659,99.4210526 236.161228,99.1421053 236.99705,98.5842105 C237.832872,98.0263158 238.482956,97.3568421 238.947301,96.5757895 C239.411647,95.7947368 239.736689,95.004386 239.922427,94.2047368 C240.108165,93.4050877 240.201034,92.7821053 240.201034,92.3357895 L240.201034,73.5347368 C240.201034,73.3115789 240.108165,73.162807 239.922427,73.0884211 C239.736689,73.0140351 239.569524,73.0698246 239.420934,73.2557895 Z M128.914109,54.6453728 C126.684132,54.6453728 124.775422,55.2092544 123.187981,56.3370176 C121.60054,57.4647808 120.315468,59.0154552 119.332767,60.9890408 C118.350065,62.9626265 117.631937,65.2933371 117.178382,67.9811727 C116.724828,70.6690084 116.49805,73.5729986 116.49805,76.6931435 L116.498987,77.1731419 C116.501799,77.9364791 116.510935,78.8948449 116.526397,80.048239 C116.545295,81.457943 116.658684,82.9710254 116.866563,84.5874859 C117.074443,86.2039465 117.405159,87.8392032 117.858714,89.4932559 C118.312269,91.1473086 118.973703,92.6321968 119.843016,93.9479206 C120.712329,95.2636443 121.827317,96.3444174 123.187981,97.1902398 C124.548645,98.0360622 126.230577,98.4589734 128.233777,98.4589734 C130.80392,98.4589734 132.863814,97.9890721 134.413459,97.0492694 C135.963104,96.1094667 137.153685,94.9629075 137.985201,93.6095916 C138.816718,92.2562758 139.364764,90.8183777 139.629337,89.2958973 C139.893911,87.773417 140.026197,86.4294992 140.026197,85.2641439 L140.026197,70.0393406 C140.026197,69.0995379 139.960054,68.065755 139.827767,66.9379918 C139.69548,65.8102286 139.468703,64.6730673 139.147435,63.5265081 C138.826167,62.3799488 138.391511,61.2803797 137.843466,60.2278007 C137.29542,59.1752217 136.605639,58.235419 135.774123,57.4083927 C134.942606,56.5813663 133.959904,55.9141064 132.826017,55.406613 C131.692131,54.8991195 130.388161,54.6453728 128.914109,54.6453728 Z M186.763441,55.0126316 C185.602947,55.0126316 184.592194,55.3194737 183.731183,55.9331579 C182.870171,56.5468421 182.130824,57.3464912 181.513142,58.3321053 C180.89546,59.3177193 180.380725,60.405614 179.968937,61.5957895 C179.557149,62.7859649 179.220231,63.9482456 178.958184,65.0826316 C178.696137,66.2170175 178.499602,67.2584211 178.368578,68.2068421 C178.237555,69.1552632 178.153325,69.8712281 178.11589,70.3547368 C178.04102,70.8382456 178.265631,71.08 178.789725,71.08 C178.902031,71.08 179.276384,71.0707018 179.912784,71.0521053 C180.549184,71.0335088 181.325966,71.005614 182.24313,70.9684211 C183.160295,70.9312281 184.142971,70.8940351 185.191159,70.8568421 C186.239347,70.8196491 187.240741,70.7824561 188.195341,70.7452632 C189.14994,70.7080702 189.973517,70.6801754 190.666069,70.6615789 C191.358622,70.6429825 191.798487,70.6150877 191.985663,70.5778947 C192.584628,70.5407018 193.211669,70.2803509 193.866786,69.7968421 C194.521904,69.3133333 194.849462,68.4764912 194.849462,67.2863158 C194.849462,66.2077193 194.699721,64.9617544 194.400239,63.5484211 C194.100757,62.1350877 193.623457,60.7961404 192.968339,59.5315789 C192.313222,58.2670175 191.480287,57.1977193 190.469534,56.3236842 C189.458781,55.4496491 188.223417,55.0126316 186.763441,55.0126316 Z M169.641619,8.0509475 C169.846162,8.13586 169.948434,8.34814124 169.948434,8.68779124 L169.948434,19.3230817 C169.948434,19.4716786 170.034557,19.545977 170.206804,19.545977 L176.278501,19.545977 C176.795242,19.545977 177.112822,19.5778192 177.231241,19.6415036 C177.349661,19.7051879 177.408871,19.8431708 177.408871,20.055452 C177.408871,20.3314176 177.258155,20.6233043 176.956723,20.9311121 C176.655291,21.23892 176.321563,21.3928239 175.955539,21.3928239 L170.174507,21.3928239 C170.023792,21.3928239 169.948434,21.4671223 169.948434,21.6157192 L169.948434,41.1986642 C169.948434,41.7718235 170.050705,42.2759915 170.255248,42.7111681 C170.459791,43.1463446 170.728927,43.5178368 171.062655,43.8256446 C171.396383,44.1334524 171.783938,44.3616548 172.22532,44.5102516 C172.666703,44.6588485 173.113468,44.7331469 173.565615,44.7331469 C174.491441,44.7331469 175.352675,44.6004712 176.149316,44.3351196 C176.945958,44.069768 177.570352,43.8203376 178.0225,43.5868282 C178.410055,43.3957751 178.689956,43.4170032 178.862203,43.6505126 C179.034449,43.884022 179.045215,44.1281454 178.894499,44.3828829 C178.506944,45.0621829 178.017117,45.6831055 177.425019,46.2456508 C176.832921,46.8081961 176.160082,47.296443 175.406502,47.7103914 C174.652923,48.1243399 173.829368,48.4427617 172.935838,48.665657 C172.042308,48.8885523 171.100334,49 170.109915,49 C169.033373,49 167.967596,48.8620172 166.912585,48.5860516 C165.857573,48.3100859 164.910216,47.816532 164.070514,47.1053899 C163.230811,46.3942477 162.547206,45.428368 162.019701,44.2077509 C161.492195,42.9871337 161.228442,41.4321736 161.228442,39.5428705 L161.228442,21.6475614 C161.228442,21.4777364 161.142319,21.3928239 160.970072,21.3928239 L160.130369,21.3928239 C159.613629,21.3928239 159.296049,21.3609817 159.177629,21.2972973 C159.05921,21.2336129 159,21.0956301 159,20.8833489 C159,20.6073832 159.123802,20.3154965 159.371407,20.0076887 C159.619012,19.6998809 159.925826,19.545977 160.291851,19.545977 L161.002368,19.545977 C161.153084,19.545977 161.228442,19.4610645 161.228442,19.2912395 L161.228442,11.6809568 C161.228442,11.2139381 161.42222,10.9485865 161.809775,10.8849021 C162.348046,10.7787615 162.923996,10.6354717 163.537625,10.4550326 C164.151254,10.2745936 164.775649,10.0623123 165.410808,9.81818888 C166.045968,9.57406544 166.670363,9.30871389 167.283992,9.0221342 C167.897621,8.73555452 168.462805,8.43305374 168.979546,8.11463187 C169.216385,7.98726313 169.437076,7.966035 169.641619,8.0509475 Z M192.828665,0.00457099324 C193.034501,0.025902295 193.137419,0.185887058 193.137419,0.484525283 L193.137419,21.4745262 C193.592426,21.0692315 194.112434,20.6799352 194.697443,20.3066375 C195.282452,19.9333397 195.937878,19.6080373 196.663722,19.3307304 C197.389567,19.0534235 198.202079,18.8294448 199.101259,18.6587944 C200.000439,18.488144 200.991704,18.4028188 202.075054,18.4028188 C203.851747,18.4028188 205.341353,18.5948005 206.543871,18.9787639 C207.746389,19.3627274 208.74307,19.8746786 209.533916,20.5146177 C210.324761,21.1545567 210.931437,21.8904866 211.353943,22.7224074 C211.776449,23.5543282 212.079787,24.4182459 212.263957,25.3141606 C212.448126,26.2100752 212.556461,27.1006571 212.588962,27.9859061 C212.621462,28.8711551 212.637712,29.6977431 212.637712,30.4656699 L212.637712,42.9764784 C212.637712,43.8297305 212.811048,44.517665 213.15772,45.0402819 C213.504392,45.5628988 213.899815,45.9681935 214.343988,46.2561661 C214.788161,46.5441387 215.221501,46.746786 215.644007,46.8641082 C216.066514,46.9814303 216.364435,47.0507571 216.537771,47.0720884 C216.711107,47.114751 216.835692,47.1840777 216.911526,47.2800686 C216.987361,47.3760594 217.014445,47.4773831 216.992778,47.5840396 C216.971111,47.6906961 216.911526,47.786687 216.814025,47.8720122 C216.716524,47.9573374 216.581105,48 216.407769,48 L200.092524,48 C199.919188,48 199.783769,47.9573374 199.686268,47.8720122 C199.588766,47.786687 199.529182,47.6906961 199.507515,47.5840396 C199.485848,47.4773831 199.512932,47.3760594 199.588766,47.2800686 C199.664601,47.1840777 199.789186,47.114751 199.962522,47.0720884 C200.135858,47.0507571 200.433779,46.9814303 200.856285,46.8641082 C201.278792,46.746786 201.712132,46.5441387 202.156305,46.2561661 C202.600478,45.9681935 202.995901,45.5628988 203.342573,45.0402819 C203.689245,44.517665 203.862581,43.8297305 203.862581,42.9764784 L203.862581,29.1857918 C203.840914,28.2898772 203.770496,27.3672984 203.651327,26.4180554 C203.532159,25.4688125 203.282988,24.6048948 202.903816,23.8263023 C202.524644,23.0477097 201.972135,22.4077707 201.246291,21.9064851 C200.520447,21.4051995 199.550849,21.1545567 198.337498,21.1545567 C197.080812,21.1545567 196.105797,21.3998667 195.412454,21.8904866 C194.71911,22.3811066 194.204519,22.9890487 193.86868,23.7143129 C193.532842,24.4395772 193.327006,25.2128369 193.251171,26.034092 C193.175337,26.8553471 193.137419,27.5859442 193.137419,28.2258832 L193.137419,42.9764784 C193.137419,43.8297305 193.310755,44.517665 193.657427,45.0402819 C194.004099,45.5628988 194.399522,45.9681935 194.843695,46.2561661 C195.287868,46.5441387 195.721208,46.746786 196.143715,46.8641082 C196.566221,46.9814303 196.864142,47.0507571 197.037478,47.0720884 C197.210814,47.114751 197.335399,47.1840777 197.411234,47.2800686 C197.487068,47.3760594 197.514152,47.4773831 197.492485,47.5840396 C197.470818,47.6906961 197.411234,47.786687 197.313732,47.8720122 C197.216231,47.9573374 197.080812,48 196.907476,48 L180.592231,48 C180.418895,48 180.283476,47.9573374 180.185975,47.8720122 C180.088474,47.786687 180.028889,47.6906961 180.007222,47.5840396 C179.985555,47.4773831 180.012639,47.3760594 180.088474,47.2800686 C180.164308,47.1840777 180.288893,47.114751 180.462229,47.0720884 C180.635565,47.0507571 180.933486,46.9814303 181.355993,46.8641082 C181.778499,46.746786 182.211839,46.5441387 182.656012,46.2561661 C183.100185,45.9681935 183.495608,45.5628988 183.84228,45.0402819 C184.188952,44.517665 184.362288,43.8297305 184.362288,42.9764784 L184.362288,6.94790972 C184.362288,6.6706028 184.232286,6.49995239 183.972282,6.43595848 C183.928948,6.43595848 183.771862,6.40396153 183.501025,6.33996762 C183.230187,6.27597372 182.921433,6.20131416 182.574761,6.11598895 C182.228089,6.03066375 181.908501,5.95600419 181.615996,5.89201028 C181.323492,5.82801638 181.144739,5.78535378 181.079738,5.76402247 C180.798068,5.70002857 180.651815,5.55604228 180.640982,5.33206361 C180.630148,5.10808494 180.787234,4.95343301 181.112239,4.8681078 C181.957252,4.67612608 182.872682,4.41481764 183.85853,4.08418246 C184.844378,3.75354728 185.835643,3.3802495 186.832325,2.96428912 C187.829006,2.54832873 188.793188,2.10037139 189.724868,1.6204171 C190.656549,1.14046281 191.490728,0.655175698 192.227406,0.164555757 C192.422409,0.0365679459 192.622828,-0.0167603085 192.828665,0.00457099324 Z M232.419355,17 C234.096774,17 235.575269,17.2338596 236.854839,17.7015789 C238.134409,18.1692982 239.241935,18.7784211 240.177419,19.5289474 C241.112903,20.2794737 241.887097,21.1170175 242.5,22.0415789 C243.112903,22.9661404 243.607527,23.8852632 243.983871,24.7989474 C244.360215,25.7126316 244.623656,26.5719298 244.774194,27.3768421 C244.924731,28.1817544 245,28.8235088 245,29.3021053 C245,29.5196491 244.930108,29.6719298 244.790323,29.7589474 C244.650538,29.8459649 244.462366,29.8894737 244.225806,29.8894737 L227.612903,29.8894737 C227.268817,29.8894737 227.096774,30.074386 227.096774,30.4442105 C227.096774,32.6631579 227.290323,34.5666667 227.677419,36.1547368 C228.064516,37.742807 228.629032,39.0426316 229.370968,40.0542105 C230.112903,41.0657895 231.037634,41.8108772 232.145161,42.2894737 C233.252688,42.7680702 234.537634,43.0073684 236,43.0073684 C237.11828,43.0073684 238.112903,42.8877193 238.983871,42.6484211 C239.854839,42.4091228 240.612903,42.1317544 241.258065,41.8163158 C241.903226,41.5008772 242.430108,41.2017544 242.83871,40.9189474 C243.247312,40.6361404 243.548387,40.4512281 243.741935,40.3642105 C244.043011,40.2336842 244.27957,40.2608772 244.451613,40.4457895 C244.623656,40.6307018 244.623656,40.9080702 244.451613,41.2778947 C244.387097,41.4084211 244.241935,41.6640351 244.016129,42.0447368 C243.790323,42.4254386 243.462366,42.8659649 243.032258,43.3663158 C242.602151,43.8666667 242.064516,44.3887719 241.419355,44.9326316 C240.774194,45.4764912 240.005376,45.9768421 239.112903,46.4336842 C238.22043,46.8905263 237.198925,47.2657895 236.048387,47.5594737 C234.897849,47.8531579 233.612903,48 232.193548,48 C230.043011,48 228.096774,47.6573684 226.354839,46.9721053 C224.612903,46.2868421 223.123656,45.2915789 221.887097,43.9863158 C220.650538,42.6810526 219.693548,41.0929825 219.016129,39.2221053 C218.33871,37.3512281 218,35.2410526 218,32.8915789 C218,30.3245614 218.419355,28.0512281 219.258065,26.0715789 C220.096774,24.0919298 221.193548,22.4331579 222.548387,21.0952632 C223.903226,19.7573684 225.44086,18.7403509 227.16129,18.0442105 C228.88172,17.3480702 230.634409,17 232.419355,17 Z M86.6099876,26 C87.9471729,26 89.1636401,26.2355072 90.2593892,26.7065217 C91.3551383,27.1775362 92.3023112,27.8181159 93.100908,28.6282609 C93.8995047,29.4384058 94.5216674,30.3898551 94.9673958,31.4826087 C95.4131242,32.5753623 95.6359884,33.7434783 95.6359884,34.9869565 C95.6359884,36.2304348 95.3945522,37.407971 94.9116797,38.5195652 C94.4288073,39.6311594 93.7602146,40.592029 92.9059018,41.4021739 C92.0515889,42.2123188 91.057986,42.8623188 89.9250929,43.3521739 C88.7921998,43.842029 87.5571605,44.0869565 86.2199752,44.0869565 C84.919934,44.0869565 83.7220388,43.8514493 82.6262897,43.3804348 C81.5305407,42.9094203 80.5833677,42.2782609 79.7847709,41.4869565 C78.9861742,40.6956522 78.3640116,39.7536232 77.9182831,38.6608696 C77.4725547,37.5681159 77.2496905,36.4 77.2496905,35.1565217 C77.2496905,33.9130435 77.4911267,32.7355072 77.9739992,31.623913 C78.4568716,30.5123188 79.1161783,29.542029 79.9519191,28.7130435 C80.7876599,27.884058 81.7812629,27.2246377 82.932728,26.7347826 C84.0841931,26.2449275 85.3099463,26 86.6099876,26 Z M232.225806,18.7621053 C231.55914,18.7621053 230.978495,18.9415789 230.483871,19.3005263 C229.989247,19.6594737 229.564516,20.127193 229.209677,20.7036842 C228.854839,21.2801754 228.55914,21.9164912 228.322581,22.6126316 C228.086022,23.3087719 227.892473,23.9885965 227.741935,24.6521053 C227.591398,25.315614 227.478495,25.9247368 227.403226,26.4794737 C227.327957,27.0342105 227.27957,27.4529825 227.258065,27.7357895 C227.215054,28.0185965 227.344086,28.16 227.645161,28.16 C227.709677,28.16 227.924731,28.1545614 228.290323,28.1436842 C228.655914,28.132807 229.102151,28.1164912 229.629032,28.0947368 C230.155914,28.0729825 230.72043,28.0512281 231.322581,28.0294737 C231.924731,28.0077193 232.5,27.9859649 233.048387,27.9642105 C233.596774,27.9424561 234.069892,27.9261404 234.467742,27.9152632 C234.865591,27.904386 235.11828,27.8880702 235.225806,27.8663158 C235.569892,27.8445614 235.930108,27.6922807 236.306452,27.4094737 C236.682796,27.1266667 236.870968,26.637193 236.870968,25.9410526 C236.870968,25.3101754 236.784946,24.5814035 236.612903,23.7547368 C236.44086,22.9280702 236.166667,22.1449123 235.790323,21.4052632 C235.413978,20.665614 234.935484,20.0401754 234.354839,19.5289474 C233.774194,19.0177193 233.064516,18.7621053 232.225806,18.7621053 Z" id="Combined-Shape" fill="#FFFFFF" fill-rule="nonzero" />
    </g>
</svg>